<svg width="51" height="51" viewBox="0 0 51 51" fill="none" xmlns="http://www.w3.org/2000/svg">
<rect width="50.2023" height="50.2023" rx="14.7654" transform="matrix(1 0 0 -1 0 50.2023)" fill="#2BBC5D" fill-opacity="0.25"/>
<path d="M36.8037 34.8233L27.9057 39.9549C26.4031 40.8215 24.5361 40.8214 23.0335 39.9549L14.1356 34.8233C12.63 33.9551 11.6948 32.336 11.6948 30.5979V20.3427C11.6948 18.6046 12.63 16.9855 14.1355 16.1173L23.0335 10.9857C24.5363 10.119 26.4033 10.1193 27.9057 10.9857L36.8036 16.1173C38.3091 16.9855 39.2444 18.6046 39.2444 20.3427V30.5979C39.2444 32.336 38.3091 33.9551 36.8037 34.8233ZM36.8796 20.3427C36.8796 19.4474 36.3979 18.6134 35.6224 18.1662L26.7244 13.0346C25.9503 12.5882 24.9888 12.5882 24.2147 13.0346L15.3168 18.1662C14.5413 18.6135 14.0596 19.4474 14.0596 20.3427V30.5979C14.0596 31.4932 14.5413 32.3272 15.3168 32.7743L24.2147 37.9059C24.9888 38.3524 25.9507 38.3522 26.7245 37.9059L35.6224 32.7744C36.3979 32.3272 36.8796 31.4932 36.8796 30.5979V20.3427Z" fill="#2BBC5D"/>
<path d="M24.3459 26.3731L19.9545 30.0895C19.456 30.5113 18.7099 30.4492 18.2881 29.9506C17.8663 29.452 17.9285 28.7058 18.427 28.284L21.7517 25.4703L18.427 22.6566C17.9285 22.2347 17.8663 21.4886 18.2881 20.99C18.7109 20.4903 19.4572 20.4303 19.9545 20.8512L24.3459 24.5676C24.9046 25.0403 24.903 25.9016 24.3459 26.3731Z" fill="#2BBC5D"/>
<path d="M31.7484 22.9365H26.428C25.775 22.9365 25.2456 22.4071 25.2456 21.7539C25.2456 21.1008 25.775 20.5713 26.428 20.5713H31.7484C32.4014 20.5713 32.9308 21.1008 32.9308 21.7539C32.9308 22.4071 32.4014 22.9365 31.7484 22.9365Z" fill="#2BBC5D"/>
</svg>
