<svg width="51" height="51" viewBox="0 0 51 51" fill="none" xmlns="http://www.w3.org/2000/svg">
<rect width="50.2023" height="50.2023" rx="14.7654" transform="matrix(1 0 0 -1 0 50.2023)" fill="#BE49E8" fill-opacity="0.25"/>
<path d="M39.4504 39.8665C26.6301 39.8665 16.0852 30.0038 14.9677 17.47C17.0979 20.4742 19.7074 23.3648 22.9651 26.6881C23.2072 26.9378 23.6083 26.9429 23.8568 26.6969C24.1053 26.4535 24.109 26.0537 23.8656 25.8052C23.375 25.3058 22.8768 24.7874 22.3761 24.2627C22.0898 23.9638 21.8098 23.6662 21.5349 23.3736C21.4845 23.3194 21.434 23.2651 21.3835 23.2097C17.3578 18.8989 14.4797 15.1468 12.3898 10.4866C12.2473 10.1688 12.3898 9.79546 12.7064 9.65298C12.7909 9.61515 12.8779 9.59747 12.9649 9.59747C13.2058 9.59747 13.4366 9.73622 13.5413 9.96951C14.2854 11.628 15.1493 13.1667 16.1205 14.6637C24.9287 14.8895 32.9462 19.7893 37.1486 27.5861C37.2533 27.7816 37.2482 28.0174 37.1347 28.2091C37.02 28.3983 36.8144 28.5156 36.5924 28.5156H34.2567L38.4452 30.9094C38.5776 30.9851 38.6797 31.1074 38.7289 31.2512C39.6269 33.8619 40.0809 36.5482 40.0809 39.2359C40.0809 39.584 39.7984 39.8665 39.4504 39.8665Z" fill="#BE49E8"/>
</svg>
