<svg width="51" height="51" viewBox="0 0 51 51" fill="none" xmlns="http://www.w3.org/2000/svg">
<rect width="50.2023" height="50.2023" rx="14.7654" transform="matrix(1 0 0 -1 0 50.2023)" fill="#5A9BE9" fill-opacity="0.25"/>
<path d="M38.9789 39.8665H35.3726C34.8825 39.8665 34.4858 39.4698 34.4858 38.9797V38.0929H27.2282C26.8609 39.1229 25.8858 39.8665 24.7312 39.8665C23.5766 39.8665 22.6015 39.1229 22.2342 38.0929H14.9765V38.9797C14.9765 39.4698 14.5799 39.8665 14.0897 39.8665H10.4835C9.99331 39.8665 9.59668 39.4698 9.59668 38.9797V35.4325C9.59668 34.9424 9.99331 34.5457 10.4835 34.5457H14.0897C14.5799 34.5457 14.9765 34.9424 14.9765 35.4325V36.3311H18.6185C15.5409 34.4085 13.5117 31.0317 13.2691 27.2495C12.2051 26.9013 11.4294 25.9108 11.4294 24.7319C11.4294 23.265 12.6228 22.0716 14.0897 22.0716C15.5567 22.0716 16.7501 23.265 16.7501 24.7319C16.7501 25.8635 16.0371 26.8255 15.0392 27.2095C15.3418 31.4261 18.284 34.9801 22.3766 35.9941C22.8193 35.1383 23.7029 34.5457 24.7312 34.5457C25.7594 34.5457 26.6431 35.1383 27.0857 35.9941C31.1784 34.9802 34.1206 31.4262 34.4232 27.2095C33.4253 26.8255 32.7123 25.8635 32.7123 24.7319C32.7123 23.265 33.9057 22.0716 35.3726 22.0716C36.8396 22.0716 38.033 23.265 38.033 24.7319C38.033 25.9108 37.2573 26.9013 36.1933 27.2495C35.9507 31.0317 33.9214 34.3967 30.8439 36.3193H34.4858V35.4325C34.4858 34.9424 34.8825 34.5457 35.3726 34.5457H38.9789C39.4691 34.5457 39.8657 34.9424 39.8657 35.4325V38.9797C39.8657 39.4698 39.4691 39.8665 38.9789 39.8665Z" fill="#5398E9"/>
<path d="M30.7637 10.6974C30.2999 12.1168 28.9635 13.2037 27.391 13.2037H22.0702C20.4977 13.2037 19.1613 12.1168 18.6975 10.6974C18.5186 10.1501 18.9842 9.59747 19.56 9.59747H29.9012C30.4769 9.59747 30.9425 10.1501 30.7637 10.6974Z" fill="#5398E9"/>
<path d="M32.5632 21.6767L25.6179 32.0947V23.6818C26.6479 23.3145 27.3915 22.3394 27.3915 21.1848C27.3915 19.7178 26.1981 18.5245 24.7311 18.5245C23.2641 18.5245 22.0707 19.7178 22.0707 21.1848C22.0707 22.3394 22.8143 23.3145 23.8443 23.6818V32.0947L16.899 21.6767C16.6643 21.3251 16.711 20.8566 17.0098 20.5578C18.6378 18.9298 19.6784 16.8326 20.08 14.5829C20.696 14.8328 21.366 14.9773 22.0707 14.9773H27.3915C28.0962 14.9773 28.7662 14.8329 29.3822 14.583C29.7838 16.8328 30.8244 18.9298 32.4524 20.5578C32.7511 20.8566 32.7979 21.3251 32.5632 21.6767Z" fill="#5398E9"/>
<path d="M24.7306 22.0715C24.2415 22.0715 23.8442 21.6742 23.8442 21.1852C23.8442 20.6962 24.2415 20.2989 24.7306 20.2989C25.2196 20.2989 25.6169 20.6962 25.6169 21.1852C25.6169 21.6742 25.2196 22.0715 24.7306 22.0715Z" fill="#5398E9"/>
</svg>
