<svg width="1080" height="1080" viewBox="0 0 1080 1080" fill="none" xmlns="http://www.w3.org/2000/svg">
<rect width="1080" height="1080" fill="url(#paint0_linear_5:2)"/>
<path d="M515.097 649.315C519.413 640.977 516.153 630.719 507.815 626.403C499.477 622.087 489.219 625.347 484.903 633.685L515.097 649.315ZM368 896.5L352.903 888.685C348.987 896.25 351.274 905.544 358.253 910.428C365.232 915.312 374.748 914.277 380.513 908.007L368 896.5ZM711 523.5L723.514 535.007C727.715 530.438 729.092 523.942 727.106 518.061C725.12 512.179 720.086 507.848 713.975 506.762L711 523.5ZM502.975 469.262C493.731 467.619 484.905 473.781 483.262 483.025C481.619 492.269 487.781 501.095 497.025 502.738L502.975 469.262ZM484.903 633.685L352.903 888.685L383.097 904.315L515.097 649.315L484.903 633.685ZM380.513 908.007L723.514 535.007L698.487 511.993L355.487 884.993L380.513 908.007ZM713.975 506.762L502.975 469.262L497.025 502.738L708.025 540.238L713.975 506.762Z" fill="white"/>
<path d="M561.903 429.185C557.587 437.523 560.847 447.781 569.185 452.097C577.523 456.413 587.781 453.153 592.097 444.815L561.903 429.185ZM709 182L724.097 189.815C728.013 182.25 725.726 172.956 718.747 168.072C711.768 163.188 702.252 164.223 696.487 170.493L709 182ZM366 555L353.486 543.493C349.285 548.062 347.908 554.558 349.894 560.439C351.88 566.321 356.914 570.652 363.025 571.738L366 555ZM574.025 609.238C583.269 610.881 592.095 604.719 593.738 595.475C595.381 586.231 589.219 577.405 579.975 575.762L574.025 609.238ZM592.097 444.815L724.097 189.815L693.903 174.185L561.903 429.185L592.097 444.815ZM696.487 170.493L353.486 543.493L378.514 566.507L721.513 193.507L696.487 170.493ZM363.025 571.738L574.025 609.238L579.975 575.762L368.975 538.262L363.025 571.738Z" fill="white"/>
<defs>
<linearGradient id="paint0_linear_5:2" x1="0" y1="0" x2="1080" y2="1080" gradientUnits="userSpaceOnUse">
<stop stop-color="#F7B733"/>
<stop offset="0.377834" stop-color="#F8982C"/>
<stop offset="1" stop-color="#FC4A1A"/>
</linearGradient>
</defs>
</svg>
